<?xml version="1.0" encoding="utf-8"?>
<!-- Generator: Adobe Illustrator 21.0.2, SVG Export Plug-In . SVG Version: 6.00 Build 0)  -->
<svg version="1.1" id="Capa_1" xmlns="http://www.w3.org/2000/svg" xmlns:xlink="http://www.w3.org/1999/xlink" x="0px" y="0px"
	 viewBox="0 0 261.2 85.5" style="enable-background:new 0 0 261.2 85.5;" xml:space="preserve">
<style type="text/css">
	.st0{fill:#FFFFFF;}
	.st1{fill:#569797;}
</style>
<g>
	<rect width="69.1" height="85.5"/>
	<path class="st0" d="M56,27.9C54.6,18.4,47.2,11,37.7,9.6v18.3H56z"/>
	<path class="st0" d="M13.1,30.9c0,10.9,8.1,19.8,18.5,21.3V9.6C21.1,11.2,13.1,20.1,13.1,30.9z"/>
	<g>
		<path class="st1" d="M18,76.7v-0.4c0.6-0.1,1-0.3,1.3-0.4c0.2-0.2,0.4-0.4,0.4-0.7c0-0.2-0.1-0.6-0.3-1.1l-0.9-2.3h-5.3l-0.7,2
			c-0.2,0.5-0.3,0.9-0.3,1.2c0,0.7,0.5,1.1,1.5,1.4v0.4H9v-0.4c0.6-0.1,1.1-0.4,1.5-0.9c0.4-0.5,0.9-1.3,1.3-2.5L16,61.5h2l4.5,11.8
			c0.4,1.1,0.8,1.8,1.2,2.2c0.4,0.4,0.9,0.6,1.5,0.7v0.4H18z M13.7,70.6h4.4l-2.2-6L13.7,70.6z"/>
		<path class="st1" d="M39.3,61.9v0.4c-0.7,0.2-1.2,0.4-1.5,0.7c-0.3,0.3-0.4,0.8-0.4,1.7v9.5c0,0.7,0.1,1.1,0.4,1.4
			c0.2,0.3,0.7,0.5,1.5,0.7v0.4h-7v-0.4c0.5-0.1,0.9-0.3,1.2-0.4c0.3-0.2,0.4-0.4,0.5-0.6c0.1-0.2,0.2-0.7,0.2-1.4v-9.4
			c0-0.7-0.1-1.1-0.4-1.4c-0.2-0.3-0.7-0.5-1.5-0.7v-0.4H39.3z"/>
		<path class="st1" d="M56.7,67h0.5v4.6h-0.5c-0.2-1.3-0.9-1.9-2-1.9h-2.6V74c0,0.7,0.2,1.1,0.5,1.4c0.3,0.3,0.8,0.4,1.6,0.4h0.9
			c1.4,0,2.5-0.9,3.1-2.8h0.4l-0.3,3.6H47v-0.4c0.7-0.2,1.2-0.4,1.5-0.7c0.2-0.3,0.4-0.9,0.4-1.7v-9.5c0-0.7-0.1-1.2-0.4-1.4
			c-0.3-0.3-0.7-0.5-1.5-0.6v-0.4H58v3.3h-0.4c-0.2-1-0.6-1.6-0.9-1.9c-0.4-0.3-1-0.5-1.8-0.5h-2.9v6.1h2.6c0.6,0,1-0.1,1.4-0.4
			C56.3,68.1,56.6,67.7,56.7,67z"/>
	</g>
	<g>
		<path class="st0" d="M88.3,20.7v-0.4c0.6-0.1,1-0.2,1.2-0.4c0.2-0.2,0.4-0.4,0.4-0.7c0-0.2-0.1-0.6-0.3-1.1l-0.8-2.2h-5.1
			l-0.7,1.9c-0.2,0.5-0.3,0.9-0.3,1.2c0,0.6,0.5,1.1,1.4,1.3v0.4h-4.6v-0.4c0.6-0.1,1-0.4,1.5-0.9c0.4-0.5,0.8-1.3,1.2-2.4l4.1-11.1
			h2l4.4,11.5c0.4,1,0.8,1.7,1.2,2.1c0.4,0.4,0.9,0.6,1.5,0.7v0.4H88.3z M84.1,14.8h4.3L86.2,9L84.1,14.8z"/>
		<path class="st0" d="M104.9,5.9v3.8h-0.4c-0.3-0.8-0.8-1.5-1.4-2.1c-0.7-0.6-1.4-0.9-2.1-0.9c-0.7,0-1.2,0.2-1.7,0.6
			c-0.5,0.4-0.7,0.8-0.7,1.4c0,0.3,0.1,0.5,0.2,0.8c0.1,0.3,0.3,0.5,0.5,0.7c0.2,0.2,1,0.7,2.2,1.5c1.3,0.8,2.1,1.3,2.4,1.6
			c0.4,0.3,0.7,0.7,1.1,1.2c0.5,0.7,0.8,1.5,0.8,2.4c0,1.3-0.5,2.3-1.3,3c-0.9,0.8-2,1.1-3.3,1.1c-0.7,0-1.5-0.1-2.5-0.4
			c-0.5-0.1-0.9-0.2-1.1-0.2c-0.3,0-0.6,0.2-0.7,0.5h-0.4v-4.3h0.4c0.2,1.1,0.7,2,1.3,2.6c0.7,0.6,1.5,1,2.5,1
			c0.8,0,1.4-0.2,1.9-0.6c0.5-0.4,0.7-0.9,0.7-1.5c0-0.5-0.2-0.9-0.5-1.4c-0.3-0.4-1.2-1.1-2.6-1.9c-1.3-0.8-2.1-1.4-2.5-1.8
			c-0.4-0.4-0.7-0.9-0.9-1.4c-0.2-0.5-0.3-1.1-0.3-1.6c0-1.2,0.4-2.2,1.3-3c0.8-0.8,1.9-1.2,3.3-1.2c0.4,0,0.9,0.1,1.5,0.2
			c0.6,0.1,1,0.2,1.2,0.2c0.2,0,0.5-0.1,0.7-0.4H104.9z"/>
		<path class="st0" d="M123.5,13.5c0,2.2-0.7,4-2.2,5.4c-1.5,1.4-3.3,2.1-5.6,2.1c-2.3,0-4.1-0.7-5.6-2.1c-1.5-1.4-2.2-3.2-2.2-5.4
			s0.7-4,2.2-5.4c1.5-1.4,3.3-2.1,5.6-2.1c2.3,0,4.2,0.7,5.6,2.1S123.5,11.3,123.5,13.5z M120,13.6c0-2.2-0.4-3.9-1.1-5.1
			c-0.7-1.2-1.8-1.8-3.3-1.8c-1.4,0-2.5,0.6-3.2,1.8c-0.7,1.2-1.1,2.9-1.1,5.1c0,2.1,0.4,3.7,1.1,4.9c0.8,1.2,1.8,1.7,3.2,1.7
			c1.4,0,2.5-0.6,3.2-1.7C119.6,17.3,120,15.7,120,13.6z"/>
		<path class="st0" d="M138.7,11.3h-0.4c-0.3-1.4-0.9-2.6-1.8-3.4c-0.9-0.8-1.9-1.2-3.1-1.2c-1.3,0-2.4,0.6-3.2,1.7
			c-0.8,1.1-1.2,2.6-1.2,4.5c0,2.1,0.5,3.8,1.4,4.9c0.9,1.2,2.2,1.7,3.8,1.7c0.9,0,1.7-0.2,2.4-0.5c0.7-0.4,1.5-0.9,2.2-1.7v0.8
			c-1.4,2-3.4,2.9-5.8,2.9c-2.2,0-4-0.7-5.4-2s-2.1-3.1-2.1-5.3c0-2.2,0.7-4.1,2.2-5.5c1.5-1.5,3.3-2.2,5.5-2.2
			c0.9,0,1.9,0.2,3.1,0.6c0.5,0.2,0.8,0.3,1,0.3c0.4,0,0.6-0.2,0.9-0.7h0.4V11.3z"/>
		<path class="st0" d="M147.5,6.3v0.4c-0.7,0.2-1.2,0.4-1.4,0.6s-0.4,0.8-0.4,1.7v9.2c0,0.6,0.1,1.1,0.3,1.4
			c0.2,0.3,0.7,0.5,1.5,0.7v0.4h-6.8v-0.4c0.5-0.1,0.9-0.3,1.1-0.4c0.3-0.2,0.4-0.3,0.5-0.6c0.1-0.2,0.1-0.7,0.1-1.3V8.7
			c0-0.6-0.1-1.1-0.4-1.4c-0.2-0.3-0.7-0.5-1.5-0.7V6.3H147.5z"/>
		<path class="st0" d="M157.6,20.7v-0.4c0.6-0.1,1-0.2,1.2-0.4c0.2-0.2,0.4-0.4,0.4-0.7c0-0.2-0.1-0.6-0.3-1.1l-0.8-2.2H153
			l-0.7,1.9c-0.2,0.5-0.3,0.9-0.3,1.2c0,0.6,0.5,1.1,1.4,1.3v0.4h-4.6v-0.4c0.6-0.1,1-0.4,1.5-0.9c0.4-0.5,0.8-1.3,1.2-2.4l4.1-11.1
			h2l4.4,11.5c0.4,1,0.8,1.7,1.2,2.1c0.4,0.4,0.9,0.6,1.5,0.7v0.4H157.6z M153.5,14.8h4.3L155.6,9L153.5,14.8z"/>
		<path class="st0" d="M178.5,11.3h-0.4c-0.3-1.4-0.9-2.6-1.8-3.4c-0.9-0.8-1.9-1.2-3.1-1.2c-1.3,0-2.4,0.6-3.2,1.7
			c-0.8,1.1-1.2,2.6-1.2,4.5c0,2.1,0.5,3.8,1.4,4.9c0.9,1.2,2.2,1.7,3.8,1.7c0.9,0,1.7-0.2,2.4-0.5c0.7-0.4,1.5-0.9,2.2-1.7v0.8
			c-1.4,2-3.4,2.9-5.8,2.9c-2.2,0-4-0.7-5.4-2c-1.4-1.4-2.1-3.1-2.1-5.3c0-2.2,0.7-4.1,2.2-5.5c1.5-1.5,3.3-2.2,5.5-2.2
			c0.9,0,1.9,0.2,3.1,0.6c0.5,0.2,0.8,0.3,1,0.3c0.4,0,0.6-0.2,0.9-0.7h0.4V11.3z"/>
		<path class="st0" d="M187.3,6.3v0.4c-0.7,0.2-1.2,0.4-1.4,0.6c-0.2,0.3-0.4,0.8-0.4,1.7v9.2c0,0.6,0.1,1.1,0.3,1.4
			c0.2,0.3,0.7,0.5,1.5,0.7v0.4h-6.8v-0.4c0.5-0.1,0.9-0.3,1.1-0.4c0.3-0.2,0.4-0.3,0.5-0.6c0.1-0.2,0.1-0.7,0.1-1.3V8.7
			c0-0.6-0.1-1.1-0.4-1.4c-0.2-0.3-0.7-0.5-1.5-0.7V6.3H187.3z"/>
		<path class="st0" d="M205.1,13.5c0,2.2-0.7,4-2.2,5.4c-1.5,1.4-3.4,2.1-5.6,2.1c-2.3,0-4.1-0.7-5.6-2.1c-1.5-1.4-2.2-3.2-2.2-5.4
			s0.7-4,2.2-5.4s3.3-2.1,5.6-2.1c2.3,0,4.2,0.7,5.6,2.1C204.3,9.5,205.1,11.3,205.1,13.5z M201.6,13.6c0-2.2-0.4-3.9-1.1-5.1
			c-0.7-1.2-1.8-1.8-3.3-1.8c-1.4,0-2.5,0.6-3.2,1.8c-0.7,1.2-1.1,2.9-1.1,5.1c0,2.1,0.4,3.7,1.1,4.9c0.8,1.2,1.8,1.7,3.2,1.7
			c1.4,0,2.5-0.6,3.2-1.7C201.2,17.3,201.6,15.7,201.6,13.6z M197.2,0.7h4.4l-5.5,4.1h-0.4L197.2,0.7z"/>
		<path class="st0" d="M217.3,6.7V6.3h4.8v0.4c-1.4,0.1-2.1,0.9-2.1,2.4v11.8h-0.5L209.2,9.2V18c0,0.8,0.1,1.3,0.4,1.6
			c0.3,0.3,0.8,0.5,1.7,0.7v0.4h-5v-0.4c0.7-0.1,1.2-0.3,1.4-0.7c0.3-0.4,0.4-0.9,0.4-1.7V8.1c-0.6-0.6-0.9-0.9-1.2-1.1
			c-0.2-0.2-0.5-0.3-0.7-0.3V6.3h4.3l8.4,9.6V9.5c0-1-0.1-1.6-0.4-2C218.5,7.1,218,6.9,217.3,6.7z"/>
		<path class="st0" d="M228.7,20.7v-0.4c0.8-0.2,1.3-0.4,1.5-0.7c0.2-0.3,0.3-0.8,0.3-1.6V8.8c0-0.6-0.1-1.1-0.3-1.4
			c-0.2-0.3-0.7-0.5-1.5-0.7V6.3h7.4c2.7,0,4.8,0.7,6.3,2c1.5,1.4,2.3,3.1,2.3,5.3c0,2.1-0.7,3.8-2.1,5.1c-1.4,1.3-3.3,1.9-5.6,1.9
			H228.7z M235.6,7.1h-1.9v11c0,0.6,0.2,1.1,0.5,1.3c0.4,0.3,1,0.4,1.8,0.4c1.7,0,3-0.6,3.9-1.7c0.9-1.1,1.4-2.7,1.4-4.7
			c0-2-0.5-3.5-1.5-4.7C238.8,7.7,237.4,7.1,235.6,7.1z"/>
		<path class="st0" d="M255.9,11.3h0.5v4.4h-0.5c-0.2-1.2-0.8-1.8-2-1.8h-2.5v4.2c0,0.6,0.1,1.1,0.4,1.4c0.3,0.3,0.8,0.4,1.5,0.4
			h0.8c1.4,0,2.4-0.9,3-2.7h0.4l-0.3,3.5h-10.9v-0.4c0.7-0.2,1.2-0.4,1.4-0.7c0.2-0.3,0.4-0.8,0.4-1.6V8.7c0-0.7-0.1-1.1-0.4-1.4
			c-0.2-0.3-0.7-0.5-1.4-0.6V6.3h10.8v3.2h-0.4c-0.2-0.9-0.5-1.6-0.9-1.9c-0.4-0.3-0.9-0.5-1.7-0.5h-2.8v5.9h2.5
			c0.6,0,1-0.1,1.3-0.4C255.6,12.4,255.8,11.9,255.9,11.3z"/>
		<path class="st0" d="M87.1,35.8v0.4c-0.7,0.2-1.2,0.4-1.4,0.6c-0.2,0.3-0.4,0.8-0.4,1.7v9.2c0,0.6,0.1,1.1,0.3,1.4
			c0.2,0.3,0.7,0.5,1.5,0.7v0.4h-6.8v-0.4c0.5-0.1,0.9-0.3,1.1-0.4c0.3-0.2,0.4-0.3,0.5-0.6c0.1-0.2,0.1-0.7,0.1-1.3v-9.2
			c0-0.6-0.1-1.1-0.4-1.4c-0.2-0.3-0.7-0.5-1.5-0.7v-0.4H87.1z"/>
		<path class="st0" d="M99.4,36.2v-0.4h4.8v0.4c-1.4,0.1-2.1,0.9-2.1,2.4v11.8h-0.5L91.3,38.7v8.8c0,0.8,0.1,1.3,0.4,1.6
			c0.3,0.3,0.8,0.5,1.7,0.7v0.4h-5v-0.4c0.7-0.1,1.2-0.3,1.4-0.7c0.3-0.4,0.4-0.9,0.4-1.7v-9.7c-0.6-0.6-0.9-0.9-1.2-1.1
			c-0.2-0.2-0.5-0.3-0.7-0.3v-0.4h4.3l8.4,9.6v-6.5c0-1-0.1-1.6-0.4-2C100.5,36.6,100.1,36.3,99.4,36.2z"/>
		<path class="st0" d="M119.3,35.8v0.4c-0.6,0.1-1.1,0.4-1.4,0.7c-0.4,0.4-0.7,1-1.1,1.9l-4.4,11.7h-0.5L107.4,39
			c-0.4-1-0.8-1.8-1.1-2.1c-0.3-0.4-0.8-0.6-1.4-0.7v-0.4h6.5v0.4c-0.8,0.1-1.2,0.5-1.2,1c0,0.3,0.1,0.6,0.3,1l2.9,7.3l2.6-6.9
			c0.2-0.4,0.2-0.8,0.2-1.1c0-0.8-0.5-1.2-1.5-1.4v-0.4H119.3z"/>
		<path class="st0" d="M129.9,40.7h0.5v4.4h-0.5c-0.2-1.2-0.8-1.8-2-1.8h-2.5v4.2c0,0.6,0.1,1.1,0.4,1.4c0.3,0.3,0.8,0.4,1.5,0.4
			h0.8c1.4,0,2.4-0.9,3-2.7h0.4l-0.3,3.5h-10.9v-0.4c0.7-0.2,1.2-0.4,1.4-0.7c0.2-0.3,0.4-0.8,0.4-1.6v-9.2c0-0.7-0.1-1.1-0.4-1.4
			c-0.2-0.3-0.7-0.5-1.4-0.6v-0.4h10.8V39h-0.4c-0.2-0.9-0.5-1.6-0.9-1.9c-0.4-0.3-0.9-0.5-1.7-0.5h-2.8v5.9h2.5
			c0.6,0,1-0.1,1.3-0.4C129.6,41.8,129.8,41.4,129.9,40.7z"/>
		<path class="st0" d="M132.8,50.1v-0.4c1.2-0.1,1.8-0.7,1.8-1.8v-9.7c0-0.7-0.1-1.1-0.4-1.4c-0.3-0.3-0.7-0.5-1.4-0.6v-0.4h6.8
			c1.8,0,3.2,0.3,4.1,0.9c1,0.6,1.4,1.5,1.4,2.7c0,0.8-0.3,1.5-0.8,2.1c-0.5,0.6-1.2,1-2.2,1.3v0c0.3,0.1,0.7,0.4,1.1,0.8
			c0.4,0.5,1,1.4,1.7,2.8c0.7,1.4,1.3,2.2,1.6,2.6c0.3,0.4,0.8,0.6,1.4,0.7v0.4h-4.1c-0.5-0.6-1.2-1.8-2.1-3.5
			c-0.6-1.2-1-1.9-1.3-2.3c-0.3-0.4-0.6-0.7-0.9-0.8c-0.3-0.2-0.9-0.2-1.8-0.2v4.4c0,0.6,0.1,1.1,0.4,1.4c0.3,0.3,0.8,0.5,1.4,0.6
			v0.4H132.8z M138.8,36.6h-1v5.9c0.2,0,0.5,0,0.7,0c1.1,0,2-0.2,2.5-0.7c0.5-0.5,0.8-1.3,0.8-2.3C141.8,37.5,140.8,36.6,138.8,36.6
			z"/>
		<path class="st0" d="M157.7,35.4v3.8h-0.4c-0.3-0.8-0.8-1.5-1.4-2.1c-0.7-0.6-1.4-0.9-2.1-0.9c-0.7,0-1.2,0.2-1.7,0.6
			c-0.5,0.4-0.7,0.8-0.7,1.4c0,0.3,0.1,0.5,0.2,0.8c0.1,0.3,0.3,0.5,0.5,0.7s1,0.7,2.2,1.5c1.3,0.8,2.1,1.3,2.4,1.6
			c0.4,0.3,0.7,0.7,1.1,1.2c0.5,0.7,0.8,1.5,0.8,2.4c0,1.3-0.4,2.3-1.3,3c-0.9,0.8-2,1.1-3.3,1.1c-0.7,0-1.5-0.1-2.5-0.4
			c-0.5-0.1-0.9-0.2-1.1-0.2c-0.3,0-0.6,0.2-0.7,0.5h-0.4v-4.3h0.4c0.2,1.1,0.7,2,1.3,2.6c0.7,0.6,1.5,1,2.5,1
			c0.8,0,1.4-0.2,1.9-0.6c0.5-0.4,0.7-0.9,0.7-1.5c0-0.5-0.2-0.9-0.5-1.4c-0.3-0.4-1.2-1.1-2.6-1.9c-1.3-0.8-2.1-1.4-2.5-1.8
			c-0.4-0.4-0.7-0.9-0.9-1.4c-0.2-0.5-0.3-1.1-0.3-1.6c0-1.2,0.4-2.2,1.3-3c0.8-0.8,1.9-1.2,3.3-1.2c0.4,0,0.9,0.1,1.5,0.2
			c0.6,0.1,1,0.2,1.2,0.2c0.2,0,0.5-0.1,0.7-0.4H157.7z"/>
		<path class="st0" d="M167.4,35.8v0.4c-0.7,0.2-1.2,0.4-1.4,0.6c-0.2,0.3-0.4,0.8-0.4,1.7v9.2c0,0.6,0.1,1.1,0.3,1.4
			c0.2,0.3,0.7,0.5,1.5,0.7v0.4h-6.8v-0.4c0.5-0.1,0.9-0.3,1.1-0.4c0.3-0.2,0.4-0.3,0.5-0.6c0.1-0.2,0.1-0.7,0.1-1.3v-9.2
			c0-0.6-0.1-1.1-0.4-1.4c-0.2-0.3-0.7-0.5-1.5-0.7v-0.4H167.4z"/>
		<path class="st0" d="M185.1,43c0,2.2-0.7,4-2.2,5.4c-1.5,1.4-3.4,2.1-5.6,2.1c-2.3,0-4.1-0.7-5.6-2.1c-1.5-1.4-2.2-3.2-2.2-5.4
			c0-2.2,0.7-4,2.2-5.4c1.5-1.4,3.3-2.1,5.6-2.1c2.3,0,4.2,0.7,5.6,2.1C184.4,39,185.1,40.8,185.1,43z M181.7,43.1
			c0-2.2-0.4-3.9-1.1-5.1s-1.8-1.8-3.3-1.8c-1.4,0-2.5,0.6-3.2,1.8c-0.7,1.2-1.1,2.9-1.1,5.1c0,2.1,0.4,3.7,1.1,4.9
			c0.8,1.2,1.8,1.7,3.2,1.7c1.4,0,2.5-0.6,3.2-1.7C181.3,46.8,181.7,45.2,181.7,43.1z"/>
		<path class="st0" d="M197.4,36.2v-0.4h4.8v0.4c-1.4,0.1-2.1,0.9-2.1,2.4v11.8h-0.5l-10.3-11.6v8.8c0,0.8,0.1,1.3,0.4,1.6
			c0.3,0.3,0.8,0.5,1.7,0.7v0.4h-5v-0.4c0.7-0.1,1.2-0.3,1.4-0.7c0.3-0.4,0.4-0.9,0.4-1.7v-9.7c-0.6-0.6-0.9-0.9-1.2-1.1
			c-0.2-0.2-0.5-0.3-0.7-0.3v-0.4h4.3l8.4,9.6v-6.5c0-1-0.1-1.6-0.4-2C198.5,36.6,198.1,36.3,197.4,36.2z"/>
		<path class="st0" d="M210.4,35.8v0.4c-0.7,0.2-1.2,0.4-1.4,0.6c-0.2,0.3-0.4,0.8-0.4,1.7v9.2c0,0.6,0.1,1.1,0.3,1.4
			c0.2,0.3,0.7,0.5,1.5,0.7v0.4h-6.8v-0.4c0.5-0.1,0.9-0.3,1.1-0.4c0.3-0.2,0.4-0.3,0.5-0.6c0.1-0.2,0.1-0.7,0.1-1.3v-9.2
			c0-0.6-0.1-1.1-0.4-1.4c-0.2-0.3-0.7-0.5-1.5-0.7v-0.4H210.4z"/>
		<path class="st0" d="M220.9,35.4v3.8h-0.4c-0.3-0.8-0.8-1.5-1.4-2.1c-0.7-0.6-1.4-0.9-2.1-0.9c-0.7,0-1.2,0.2-1.7,0.6
			c-0.5,0.4-0.7,0.8-0.7,1.4c0,0.3,0.1,0.5,0.2,0.8c0.1,0.3,0.3,0.5,0.5,0.7s1,0.7,2.2,1.5c1.3,0.8,2.1,1.3,2.4,1.6
			c0.4,0.3,0.7,0.7,1.1,1.2c0.5,0.7,0.8,1.5,0.8,2.4c0,1.3-0.4,2.3-1.3,3c-0.9,0.8-2,1.1-3.3,1.1c-0.7,0-1.5-0.1-2.5-0.4
			c-0.5-0.1-0.9-0.2-1.1-0.2c-0.3,0-0.6,0.2-0.7,0.5h-0.4v-4.3h0.4c0.2,1.1,0.7,2,1.3,2.6c0.7,0.6,1.5,1,2.5,1
			c0.8,0,1.4-0.2,1.9-0.6c0.5-0.4,0.7-0.9,0.7-1.5c0-0.5-0.2-0.9-0.5-1.4c-0.3-0.4-1.2-1.1-2.6-1.9c-1.3-0.8-2.1-1.4-2.5-1.8
			c-0.4-0.4-0.7-0.9-0.9-1.4c-0.2-0.5-0.3-1.1-0.3-1.6c0-1.2,0.4-2.2,1.3-3c0.8-0.8,1.9-1.2,3.3-1.2c0.4,0,0.9,0.1,1.5,0.2
			c0.6,0.1,1,0.2,1.2,0.2c0.2,0,0.5-0.1,0.7-0.4H220.9z"/>
		<path class="st0" d="M233,49.7v0.4h-6.7v-0.4c0.7-0.1,1.2-0.3,1.4-0.6s0.4-0.8,0.4-1.5v-11h-1.4c-0.9,0-1.6,0.2-2.1,0.6
			c-0.5,0.4-0.9,1-1.1,1.8H223l0.1-3.5h0.4c0.3,0.2,0.8,0.3,1.4,0.3h9.3c0.6,0,1.1-0.1,1.4-0.3h0.4l0.1,3.5h-0.4
			c-0.2-0.8-0.6-1.4-1.1-1.8c-0.5-0.4-1.2-0.6-2.1-0.6h-1.4v11c0,0.7,0.1,1.2,0.4,1.5C231.9,49.4,232.3,49.6,233,49.7z"/>
		<path class="st0" d="M243.7,50.1v-0.4c0.6-0.1,1-0.2,1.2-0.4c0.2-0.2,0.4-0.4,0.4-0.7c0-0.2-0.1-0.6-0.3-1.1l-0.8-2.2h-5.1
			l-0.7,1.9c-0.2,0.5-0.3,0.9-0.3,1.2c0,0.6,0.5,1.1,1.4,1.3v0.4h-4.6v-0.4c0.6-0.1,1-0.4,1.5-0.9c0.4-0.5,0.8-1.3,1.2-2.4l4.1-11.1
			h2l4.4,11.5c0.4,1,0.8,1.7,1.2,2.1c0.4,0.4,0.9,0.6,1.5,0.7v0.4H243.7z M239.5,44.3h4.3l-2.2-5.8L239.5,44.3z"/>
		<path class="st0" d="M260.4,35.4v3.8h-0.4c-0.3-0.8-0.8-1.5-1.4-2.1c-0.7-0.6-1.4-0.9-2.1-0.9c-0.7,0-1.2,0.2-1.7,0.6
			c-0.5,0.4-0.7,0.8-0.7,1.4c0,0.3,0.1,0.5,0.2,0.8c0.1,0.3,0.3,0.5,0.5,0.7c0.2,0.2,1,0.7,2.2,1.5c1.3,0.8,2.1,1.3,2.4,1.6
			c0.4,0.3,0.7,0.7,1.1,1.2c0.5,0.7,0.8,1.5,0.8,2.4c0,1.3-0.4,2.3-1.3,3c-0.9,0.8-2,1.1-3.3,1.1c-0.7,0-1.5-0.1-2.5-0.4
			c-0.5-0.1-0.9-0.2-1.1-0.2c-0.3,0-0.6,0.2-0.7,0.5h-0.4v-4.3h0.4c0.2,1.1,0.7,2,1.3,2.6c0.7,0.6,1.5,1,2.5,1
			c0.8,0,1.4-0.2,1.9-0.6c0.5-0.4,0.7-0.9,0.7-1.5c0-0.5-0.2-0.9-0.5-1.4c-0.3-0.4-1.2-1.1-2.6-1.9c-1.3-0.8-2.1-1.4-2.5-1.8
			c-0.4-0.4-0.7-0.9-0.9-1.4c-0.2-0.5-0.3-1.1-0.3-1.6c0-1.2,0.4-2.2,1.3-3c0.8-0.8,1.9-1.2,3.3-1.2c0.4,0,0.9,0.1,1.5,0.2
			c0.6,0.1,1,0.2,1.2,0.2c0.2,0,0.5-0.1,0.7-0.4H260.4z"/>
		<path class="st0" d="M89.5,70.2h0.5v4.4h-0.5c-0.2-1.2-0.8-1.8-2-1.8H85V77c0,0.6,0.1,1.1,0.4,1.4c0.3,0.3,0.8,0.4,1.5,0.4h0.8
			c1.4,0,2.4-0.9,3-2.7h0.4l-0.3,3.5H80v-0.4c0.7-0.2,1.2-0.4,1.4-0.7c0.2-0.3,0.4-0.8,0.4-1.6v-9.2c0-0.7-0.1-1.1-0.4-1.4
			c-0.2-0.3-0.7-0.5-1.4-0.6v-0.4h10.8v3.2h-0.4c-0.2-0.9-0.5-1.6-0.9-1.9c-0.4-0.3-0.9-0.5-1.7-0.5H85V72h2.5c0.6,0,1-0.1,1.3-0.4
			C89.1,71.3,89.3,70.8,89.5,70.2z"/>
		<path class="st0" d="M102.9,65.7v-0.4h4.8v0.4c-1.4,0.1-2.1,0.9-2.1,2.4v11.8h-0.5L94.9,68.1v8.8c0,0.8,0.1,1.3,0.4,1.6
			c0.3,0.3,0.8,0.5,1.7,0.7v0.4h-5v-0.4c0.7-0.1,1.2-0.3,1.4-0.7c0.3-0.4,0.4-0.9,0.4-1.7v-9.7c-0.6-0.6-0.9-0.9-1.2-1.1
			c-0.2-0.2-0.5-0.3-0.7-0.3v-0.4h4.3l8.4,9.6v-6.5c0-1-0.1-1.6-0.4-2C104.1,66.1,103.6,65.8,102.9,65.7z"/>
		<path class="st0" d="M123.9,70.2h0.5v4.4h-0.5c-0.2-1.2-0.8-1.8-2-1.8h-2.5V77c0,0.6,0.1,1.1,0.4,1.4c0.3,0.3,0.8,0.4,1.5,0.4h0.8
			c1.4,0,2.4-0.9,3-2.7h0.4l-0.3,3.5h-10.9v-0.4c0.7-0.2,1.2-0.4,1.4-0.7c0.2-0.3,0.4-0.8,0.4-1.6v-9.2c0-0.7-0.1-1.1-0.4-1.4
			c-0.2-0.3-0.7-0.5-1.4-0.6v-0.4h10.8v3.2h-0.4c-0.2-0.9-0.5-1.6-0.9-1.9c-0.4-0.3-0.9-0.5-1.7-0.5h-2.8V72h2.5
			c0.6,0,1-0.1,1.3-0.4C123.5,71.3,123.8,70.8,123.9,70.2z"/>
		<path class="st0" d="M126.9,79.6v-0.4c0.8-0.2,1.3-0.4,1.5-0.7c0.2-0.3,0.3-0.8,0.3-1.6v-9.2c0-0.6-0.1-1.1-0.3-1.4
			c-0.2-0.3-0.7-0.5-1.5-0.7v-0.4h7.4c2.7,0,4.8,0.7,6.3,2c1.5,1.4,2.3,3.1,2.3,5.3c0,2.1-0.7,3.8-2.1,5.1c-1.4,1.3-3.3,1.9-5.6,1.9
			H126.9z M133.8,66.1h-1.9v11c0,0.6,0.2,1.1,0.5,1.3c0.4,0.3,1,0.4,1.8,0.4c1.7,0,2.9-0.6,3.9-1.7c0.9-1.1,1.4-2.7,1.4-4.7
			c0-2-0.5-3.5-1.5-4.7C136.9,66.6,135.6,66.1,133.8,66.1z"/>
		<path class="st0" d="M155.8,79.6v-1.9c-0.9,0.9-1.6,1.5-2.3,1.8c-0.7,0.3-1.4,0.5-2.3,0.5c-1.5,0-2.7-0.4-3.6-1.3
			c-0.9-0.9-1.3-2-1.3-3.5v-7.5c0-0.6-0.1-1.1-0.4-1.4c-0.2-0.3-0.7-0.5-1.5-0.7v-0.4h6.8v0.4c-0.7,0.2-1.2,0.4-1.5,0.7
			c-0.2,0.3-0.4,0.8-0.4,1.5v8c0,0.9,0.2,1.6,0.7,2.1c0.5,0.5,1.1,0.7,2,0.7c1.2,0,2.4-0.7,3.7-2v-9c0-0.6-0.1-1.1-0.3-1.4
			c-0.2-0.3-0.7-0.5-1.5-0.7v-0.4h6.8v0.4c-0.7,0.1-1.2,0.4-1.4,0.6c-0.3,0.3-0.4,0.8-0.4,1.7v9.2c0,0.6,0.1,1.1,0.3,1.4
			c0.2,0.3,0.7,0.5,1.5,0.7v0.4H155.8z"/>
		<path class="st0" d="M175.6,70.3h-0.4c-0.3-1.4-0.9-2.6-1.8-3.4c-0.9-0.8-1.9-1.2-3.1-1.2c-1.3,0-2.4,0.6-3.2,1.7
			c-0.8,1.1-1.2,2.6-1.2,4.5c0,2.1,0.5,3.8,1.4,4.9c0.9,1.2,2.2,1.7,3.8,1.7c0.9,0,1.7-0.2,2.4-0.5c0.7-0.4,1.5-0.9,2.2-1.7v0.8
			c-1.4,2-3.4,2.9-5.8,2.9c-2.2,0-4-0.7-5.4-2c-1.4-1.4-2.1-3.1-2.1-5.3c0-2.2,0.7-4.1,2.2-5.5s3.3-2.2,5.5-2.2
			c0.9,0,1.9,0.2,3.1,0.6c0.5,0.2,0.8,0.3,1,0.3c0.4,0,0.6-0.2,0.9-0.7h0.4V70.3z"/>
		<path class="st0" d="M185.7,79.6v-0.4c0.6-0.1,1-0.2,1.2-0.4c0.2-0.2,0.4-0.4,0.4-0.7c0-0.2-0.1-0.6-0.3-1.1l-0.8-2.2H181
			l-0.7,1.9c-0.2,0.5-0.3,0.9-0.3,1.2c0,0.6,0.5,1.1,1.4,1.3v0.4h-4.6v-0.4c0.6-0.1,1-0.4,1.5-0.9c0.4-0.5,0.8-1.3,1.2-2.4l4.1-11.1
			h2l4.4,11.5c0.4,1,0.8,1.7,1.2,2.1c0.4,0.4,0.9,0.6,1.5,0.7v0.4H185.7z M181.5,73.7h4.3l-2.2-5.8L181.5,73.7z"/>
		<path class="st0" d="M206.5,70.3h-0.4c-0.3-1.4-0.9-2.6-1.8-3.4c-0.9-0.8-1.9-1.2-3.1-1.2c-1.3,0-2.4,0.6-3.2,1.7
			c-0.8,1.1-1.2,2.6-1.2,4.5c0,2.1,0.5,3.8,1.4,4.9c0.9,1.2,2.2,1.7,3.8,1.7c0.9,0,1.7-0.2,2.4-0.5c0.7-0.4,1.5-0.9,2.2-1.7v0.8
			c-1.4,2-3.4,2.9-5.8,2.9c-2.2,0-4-0.7-5.4-2c-1.4-1.4-2.1-3.1-2.1-5.3c0-2.2,0.7-4.1,2.2-5.5c1.5-1.5,3.3-2.2,5.5-2.2
			c0.9,0,1.9,0.2,3.1,0.6c0.5,0.2,0.8,0.3,1,0.3c0.4,0,0.6-0.2,0.9-0.7h0.4V70.3z"/>
		<path class="st0" d="M215.3,65.2v0.4c-0.7,0.2-1.2,0.4-1.4,0.6c-0.2,0.3-0.4,0.8-0.4,1.7v9.2c0,0.6,0.1,1.1,0.3,1.4
			c0.2,0.3,0.7,0.5,1.5,0.7v0.4h-6.8v-0.4c0.5-0.1,0.9-0.3,1.1-0.4c0.3-0.2,0.4-0.3,0.5-0.6c0.1-0.2,0.1-0.7,0.1-1.3v-9.2
			c0-0.6-0.1-1.1-0.4-1.4c-0.2-0.3-0.7-0.5-1.5-0.7v-0.4H215.3z"/>
		<path class="st0" d="M233.1,72.4c0,2.2-0.7,4-2.2,5.4c-1.5,1.4-3.4,2.1-5.6,2.1c-2.3,0-4.1-0.7-5.6-2.1c-1.5-1.4-2.2-3.2-2.2-5.4
			s0.7-4,2.2-5.4s3.3-2.1,5.6-2.1c2.3,0,4.2,0.7,5.6,2.1C232.3,68.4,233.1,70.2,233.1,72.4z M229.6,72.5c0-2.2-0.4-3.9-1.1-5.1
			c-0.7-1.2-1.8-1.8-3.3-1.8c-1.4,0-2.5,0.6-3.2,1.8c-0.7,1.2-1.1,2.9-1.1,5.1c0,2.1,0.4,3.7,1.1,4.9c0.8,1.2,1.8,1.7,3.2,1.7
			c1.4,0,2.5-0.6,3.2-1.7C229.2,76.3,229.6,74.6,229.6,72.5z M225.2,59.6h4.4l-5.5,4.1h-0.4L225.2,59.6z"/>
		<path class="st0" d="M245.3,65.7v-0.4h4.8v0.4c-1.4,0.1-2.1,0.9-2.1,2.4v11.8h-0.5l-10.3-11.6v8.8c0,0.8,0.1,1.3,0.4,1.6
			c0.3,0.3,0.8,0.5,1.7,0.7v0.4h-5v-0.4c0.7-0.1,1.2-0.3,1.4-0.7c0.3-0.4,0.4-0.9,0.4-1.7v-9.7c-0.6-0.6-0.9-0.9-1.2-1.1
			c-0.2-0.2-0.5-0.3-0.7-0.3v-0.4h4.3l8.4,9.6v-6.5c0-1-0.1-1.6-0.4-2C246.5,66.1,246,65.8,245.3,65.7z"/>
	</g>
	<g>
		<path class="st0" d="M46.8,33.8c-5.1,0-9.2,4.1-9.2,9.2s4.1,9.2,9.2,9.2S56,48.1,56,43S51.9,33.8,46.8,33.8z M49.8,48.6l-0.9-3
			h-3.4l-0.8,3h-2.7l3.6-12H49l3.6,12H49.8z"/>
		<path class="st0" d="M47.2,39.6L47.2,39.6c-0.2,1-0.4,1.7-0.6,2.4l-0.7,2.6h2.6l-0.7-2.6C47.5,41.2,47.3,40.6,47.2,39.6z"/>
	</g>
</g>
</svg>
