<svg xmlns="http://www.w3.org/2000/svg" viewBox="0 0 261.21 85.46"><title>Mesa de trabajo 1</title><rect width="69.12" height="85.46"/><path d="M56,27.89A21.51,21.51,0,0,0,37.69,9.62V27.89Z" style="fill:#fff"/><path d="M13.07,30.94A21.59,21.59,0,0,0,31.58,52.27V9.62A21.59,21.59,0,0,0,13.07,30.94Z" style="fill:#fff"/><path d="M18,76.67v-.43a3.66,3.66,0,0,0,1.28-.43.81.81,0,0,0,.37-.71A3.68,3.68,0,0,0,19.4,74l-.85-2.27H13.27l-.73,2a3.68,3.68,0,0,0-.28,1.21q0,1,1.48,1.37v.43H9v-.43a2.51,2.51,0,0,0,1.5-.9,8.42,8.42,0,0,0,1.27-2.45L16,61.52h2l4.49,11.82a7,7,0,0,0,1.21,2.2,2.29,2.29,0,0,0,1.55.7v.43Zm-4.28-6h4.4l-2.25-6Z" style="fill:#569797"/><path d="M39.31,61.9v.43a2.89,2.89,0,0,0-1.47.66,2.66,2.66,0,0,0-.38,1.71v9.47a2.1,2.1,0,0,0,.36,1.39,3.1,3.1,0,0,0,1.49.68v.43h-7v-.43a4.46,4.46,0,0,0,1.18-.43,1.28,1.28,0,0,0,.54-.59,4,4,0,0,0,.15-1.37V64.4a2.09,2.09,0,0,0-.36-1.4,3.06,3.06,0,0,0-1.51-.67V61.9Z" style="fill:#569797"/><path d="M56.71,67h.48v4.57h-.48a1.9,1.9,0,0,0-2-1.89h-2.6V74a1.82,1.82,0,0,0,.46,1.41,2.35,2.35,0,0,0,1.56.41h.86q2.17,0,3.1-2.75h.43l-.27,3.59H47v-.43a2.65,2.65,0,0,0,1.48-.67,2.77,2.77,0,0,0,.37-1.7V64.38a2.09,2.09,0,0,0-.38-1.44A2.79,2.79,0,0,0,47,62.33V61.9H58v3.28h-.43a4,4,0,0,0-.92-1.94,2.56,2.56,0,0,0-1.76-.5H52.06v6.1h2.6A2,2,0,0,0,56,68.42,2.66,2.66,0,0,0,56.71,67Z" style="fill:#569797"/><path d="M88.27,20.67v-.42a3.55,3.55,0,0,0,1.25-.41.79.79,0,0,0,.36-.69A3.58,3.58,0,0,0,89.6,18l-.83-2.21H83.65l-.71,1.91a3.6,3.6,0,0,0-.27,1.18q0,.95,1.44,1.33v.42H79.47v-.42a2.44,2.44,0,0,0,1.46-.88A8.18,8.18,0,0,0,82.17,17L86.3,5.93h2l4.37,11.5a6.83,6.83,0,0,0,1.18,2.14,2.23,2.23,0,0,0,1.5.68v.42ZM84.11,14.8h4.28L86.2,9Z" style="fill:#fff"/><path d="M104.95,5.93V9.72h-.42a4.61,4.61,0,0,0-1.44-2.12A3.26,3.26,0,0,0,101,6.74a2.55,2.55,0,0,0-1.67.56,1.72,1.72,0,0,0-.69,1.38,1.86,1.86,0,0,0,.18.79,2.46,2.46,0,0,0,.52.73,18.44,18.44,0,0,0,2.2,1.49A26,26,0,0,1,104,13.31,6.06,6.06,0,0,1,105,14.47a4.07,4.07,0,0,1,.77,2.39,3.77,3.77,0,0,1-1.35,3A4.92,4.92,0,0,1,101.17,21a10,10,0,0,1-2.46-.37,5.12,5.12,0,0,0-1.06-.19.76.76,0,0,0-.73.47h-.42V16.61h.42a4.76,4.76,0,0,0,1.34,2.64,3.5,3.5,0,0,0,2.51,1,3,3,0,0,0,1.9-.58,1.77,1.77,0,0,0,.75-1.46,2.24,2.24,0,0,0-.48-1.36,10.2,10.2,0,0,0-2.57-1.88,14.62,14.62,0,0,1-2.54-1.77,4.22,4.22,0,0,1-1.26-3,4,4,0,0,1,1.26-3,4.58,4.58,0,0,1,3.25-1.18,6.56,6.56,0,0,1,1.47.2,6.54,6.54,0,0,0,1.22.19,1.1,1.1,0,0,0,.74-.4Z" style="fill:#fff"/><path d="M123.47,13.5a7.19,7.19,0,0,1-2.21,5.42,8.51,8.51,0,0,1-11.25,0,7.22,7.22,0,0,1-2.19-5.42A7.24,7.24,0,0,1,110,8.06a8.47,8.47,0,0,1,11.24,0A7.23,7.23,0,0,1,123.47,13.5Zm-3.44.1a9.51,9.51,0,0,0-1.12-5.1,3.65,3.65,0,0,0-3.28-1.75,3.62,3.62,0,0,0-3.25,1.75,9.6,9.6,0,0,0-1.12,5.12,8.91,8.91,0,0,0,1.13,4.87,3.63,3.63,0,0,0,3.24,1.74,3.69,3.69,0,0,0,3.24-1.73A8.74,8.74,0,0,0,120,13.59Z" style="fill:#fff"/><path d="M138.66,11.31h-.4a6.41,6.41,0,0,0-1.77-3.37,4.4,4.4,0,0,0-3.12-1.2,3.69,3.69,0,0,0-3.18,1.69A7.8,7.8,0,0,0,129,13a7.74,7.74,0,0,0,1.38,4.92,4.58,4.58,0,0,0,3.8,1.74,5.33,5.33,0,0,0,2.4-.54,8,8,0,0,0,2.22-1.74v.76A6.82,6.82,0,0,1,133,21a7.29,7.29,0,0,1-5.36-2,7.15,7.15,0,0,1-2.06-5.31,7.6,7.6,0,0,1,7.76-7.76,9.33,9.33,0,0,1,3.06.6,3.68,3.68,0,0,0,1,.26q.53,0,.89-.74h.4Z" style="fill:#fff"/><path d="M147.46,6.3v.42a2.82,2.82,0,0,0-1.43.64A2.59,2.59,0,0,0,145.66,9v9.21a2,2,0,0,0,.35,1.36,3,3,0,0,0,1.45.66v.42h-6.79v-.42a4.34,4.34,0,0,0,1.15-.42,1.25,1.25,0,0,0,.53-.58,3.9,3.9,0,0,0,.15-1.33V8.74a2,2,0,0,0-.35-1.36,3,3,0,0,0-1.47-.65V6.3Z" style="fill:#fff"/><path d="M157.64,20.67v-.42a3.56,3.56,0,0,0,1.25-.41.78.78,0,0,0,.36-.69A3.59,3.59,0,0,0,159,18l-.83-2.21H153l-.71,1.91a3.58,3.58,0,0,0-.27,1.18q0,.95,1.44,1.33v.42h-4.64v-.42a2.44,2.44,0,0,0,1.46-.88A8.19,8.19,0,0,0,151.54,17l4.13-11.06h2L162,17.43a6.83,6.83,0,0,0,1.18,2.14,2.23,2.23,0,0,0,1.5.68v.42Zm-4.16-5.86h4.28L155.57,9Z" style="fill:#fff"/><path d="M178.5,11.31h-.4a6.41,6.41,0,0,0-1.77-3.37,4.4,4.4,0,0,0-3.12-1.2A3.69,3.69,0,0,0,170,8.44,7.8,7.8,0,0,0,168.85,13a7.74,7.74,0,0,0,1.38,4.92,4.58,4.58,0,0,0,3.8,1.74,5.34,5.34,0,0,0,2.4-.54,8,8,0,0,0,2.22-1.74v.76A6.82,6.82,0,0,1,172.83,21a7.29,7.29,0,0,1-5.36-2,7.14,7.14,0,0,1-2.06-5.31,7.6,7.6,0,0,1,7.76-7.76,9.33,9.33,0,0,1,3.06.6,3.69,3.69,0,0,0,1,.26q.53,0,.89-.74h.4Z" style="fill:#fff"/><path d="M187.31,6.3v.42a2.82,2.82,0,0,0-1.43.64A2.59,2.59,0,0,0,185.51,9v9.21a2,2,0,0,0,.35,1.36,3,3,0,0,0,1.45.66v.42h-6.79v-.42a4.34,4.34,0,0,0,1.15-.42,1.25,1.25,0,0,0,.53-.58,3.9,3.9,0,0,0,.15-1.33V8.74A2,2,0,0,0,182,7.37a3,3,0,0,0-1.47-.65V6.3Z" style="fill:#fff"/><path d="M205.06,13.5a7.2,7.2,0,0,1-2.21,5.42,8.51,8.51,0,0,1-11.25,0,7.22,7.22,0,0,1-2.19-5.42,7.24,7.24,0,0,1,2.2-5.43,8.47,8.47,0,0,1,11.24,0A7.23,7.23,0,0,1,205.06,13.5Zm-3.44.1a9.51,9.51,0,0,0-1.12-5.1,3.92,3.92,0,0,0-6.53,0,9.6,9.6,0,0,0-1.11,5.12A8.91,8.91,0,0,0,194,18.48a3.63,3.63,0,0,0,3.24,1.74,3.69,3.69,0,0,0,3.24-1.73A8.74,8.74,0,0,0,201.62,13.59ZM197.16.68h4.43L196.06,4.8h-.42Z" style="fill:#fff"/><path d="M217.28,6.72V6.3h4.84v.42A2,2,0,0,0,220,9.07V20.83h-.47L209.24,9.19V18a2.4,2.4,0,0,0,.42,1.61,3,3,0,0,0,1.69.66v.42h-5v-.42a2.23,2.23,0,0,0,1.44-.69,2.6,2.6,0,0,0,.44-1.66V8.15A13.16,13.16,0,0,0,207.12,7a1.79,1.79,0,0,0-.75-.32V6.3h4.32l8.39,9.63V9.47a3.71,3.71,0,0,0-.37-2A2.22,2.22,0,0,0,217.28,6.72Z" style="fill:#fff"/><path d="M228.74,20.67v-.42a3.28,3.28,0,0,0,1.48-.69,2.64,2.64,0,0,0,.34-1.64V8.76a2.06,2.06,0,0,0-.34-1.35,3.16,3.16,0,0,0-1.48-.68V6.3h7.35a9.29,9.29,0,0,1,6.33,2,6.74,6.74,0,0,1,2.32,5.34,6.59,6.59,0,0,1-2.07,5.1A8,8,0,0,1,237,20.67Zm6.86-13.55h-1.87v11a1.49,1.49,0,0,0,.54,1.31,3.19,3.19,0,0,0,1.8.38,4.73,4.73,0,0,0,3.86-1.65,7.15,7.15,0,0,0,1.37-4.68,6.89,6.89,0,0,0-1.5-4.68A5.27,5.27,0,0,0,235.59,7.12Z" style="fill:#fff"/><path d="M255.93,11.25h.47V15.7h-.47a1.85,1.85,0,0,0-2-1.83h-2.53v4.22a1.77,1.77,0,0,0,.44,1.37,2.28,2.28,0,0,0,1.52.4h.84q2.11,0,3-2.67h.42l-.26,3.49H246.45v-.42a2.58,2.58,0,0,0,1.44-.65,2.7,2.7,0,0,0,.36-1.65V8.71a2,2,0,0,0-.37-1.4,2.71,2.71,0,0,0-1.43-.59V6.3h10.77V9.49h-.42a3.92,3.92,0,0,0-.89-1.89,2.49,2.49,0,0,0-1.71-.49h-2.78v5.94h2.53a1.91,1.91,0,0,0,1.32-.41A2.59,2.59,0,0,0,255.93,11.25Z" style="fill:#fff"/><path d="M87.06,35.77v.42a2.82,2.82,0,0,0-1.43.64,2.59,2.59,0,0,0-.37,1.66V47.7a2,2,0,0,0,.35,1.36,3,3,0,0,0,1.45.66v.42H80.27v-.42a4.36,4.36,0,0,0,1.15-.42,1.25,1.25,0,0,0,.53-.58,3.9,3.9,0,0,0,.15-1.33V38.21a2,2,0,0,0-.35-1.36,3,3,0,0,0-1.47-.65v-.42Z" style="fill:#fff"/><path d="M99.37,36.19v-.42h4.84v.42a2,2,0,0,0-2.09,2.35V50.3h-.47L91.33,38.66v8.78a2.4,2.4,0,0,0,.42,1.61,3,3,0,0,0,1.69.66v.42h-5v-.42A2.23,2.23,0,0,0,89.93,49a2.59,2.59,0,0,0,.44-1.66V37.62a13.16,13.16,0,0,0-1.16-1.1,1.79,1.79,0,0,0-.75-.32v-.42h4.32l8.4,9.63V38.94a3.7,3.7,0,0,0-.38-2A2.22,2.22,0,0,0,99.37,36.19Z" style="fill:#fff"/><path d="M119.31,35.77v.42a2.71,2.71,0,0,0-1.42.73,5.72,5.72,0,0,0-1.07,1.92L112.4,50.51h-.47L107.4,39a7.54,7.54,0,0,0-1.12-2.11,2.33,2.33,0,0,0-1.42-.68v-.42h6.54v.42q-1.2.2-1.2,1a3,3,0,0,0,.25,1l2.86,7.3,2.56-6.9a3.31,3.31,0,0,0,.23-1.08q0-1.14-1.54-1.38v-.42Z" style="fill:#fff"/><path d="M129.94,40.72h.47v4.45h-.47a1.85,1.85,0,0,0-2-1.83h-2.53v4.22a1.77,1.77,0,0,0,.44,1.37,2.28,2.28,0,0,0,1.52.4h.84q2.11,0,3-2.67h.42l-.26,3.49H120.45v-.42a2.58,2.58,0,0,0,1.44-.65,2.7,2.7,0,0,0,.36-1.65V38.18a2,2,0,0,0-.37-1.4,2.71,2.71,0,0,0-1.43-.59v-.42h10.77V39h-.42a3.92,3.92,0,0,0-.89-1.89,2.49,2.49,0,0,0-1.71-.49h-2.78v5.94h2.53a1.91,1.91,0,0,0,1.32-.41A2.59,2.59,0,0,0,129.94,40.72Z" style="fill:#fff"/><path d="M132.83,50.14v-.42q1.82-.14,1.82-1.83V38.16a2,2,0,0,0-.38-1.38,2.81,2.81,0,0,0-1.44-.59v-.42h6.83a7.53,7.53,0,0,1,4.13.95,3,3,0,0,1,1.44,2.66,3.17,3.17,0,0,1-.75,2.12,4.3,4.3,0,0,1-2.15,1.3v0a2.24,2.24,0,0,1,1.09.83,19.73,19.73,0,0,1,1.7,2.8A15.37,15.37,0,0,0,146.72,49a2.24,2.24,0,0,0,1.36.67v.42h-4.14a19.58,19.58,0,0,1-2.09-3.49,19.05,19.05,0,0,0-1.3-2.31,2.62,2.62,0,0,0-.89-.81,4.73,4.73,0,0,0-1.84-.23V47.7a2,2,0,0,0,.42,1.41,2.33,2.33,0,0,0,1.43.61v.42Zm6-13.55h-1v5.89l.7,0a3.57,3.57,0,0,0,2.5-.74,3.07,3.07,0,0,0,.79-2.33Q141.8,36.59,138.8,36.59Z" style="fill:#fff"/><path d="M157.65,35.4v3.79h-.42a4.62,4.62,0,0,0-1.44-2.12,3.27,3.27,0,0,0-2.11-.86,2.55,2.55,0,0,0-1.67.56,1.72,1.72,0,0,0-.69,1.38,1.85,1.85,0,0,0,.18.79,2.46,2.46,0,0,0,.52.73,18.47,18.47,0,0,0,2.2,1.49,25.89,25.89,0,0,1,2.45,1.62,6,6,0,0,1,1.05,1.16,4.08,4.08,0,0,1,.77,2.39,3.77,3.77,0,0,1-1.35,3,4.93,4.93,0,0,1-3.27,1.13,10,10,0,0,1-2.46-.37,5.11,5.11,0,0,0-1.06-.19.76.76,0,0,0-.73.47h-.42V46.08h.42A4.77,4.77,0,0,0,151,48.73a3.51,3.51,0,0,0,2.51,1,3,3,0,0,0,1.9-.58,1.77,1.77,0,0,0,.75-1.46,2.23,2.23,0,0,0-.48-1.36,10.2,10.2,0,0,0-2.57-1.88,14.59,14.59,0,0,1-2.54-1.77,4.22,4.22,0,0,1-1.26-3,4,4,0,0,1,1.26-3,4.58,4.58,0,0,1,3.25-1.18,6.56,6.56,0,0,1,1.47.2,6.55,6.55,0,0,0,1.22.19,1.11,1.11,0,0,0,.74-.4Z" style="fill:#fff"/><path d="M167.39,35.77v.42a2.82,2.82,0,0,0-1.43.64,2.59,2.59,0,0,0-.37,1.66V47.7a2,2,0,0,0,.35,1.36,3,3,0,0,0,1.45.66v.42H160.6v-.42a4.36,4.36,0,0,0,1.15-.42,1.25,1.25,0,0,0,.53-.58,3.9,3.9,0,0,0,.15-1.33V38.21a2,2,0,0,0-.35-1.36,3,3,0,0,0-1.47-.65v-.42Z" style="fill:#fff"/><path d="M185.15,43a7.19,7.19,0,0,1-2.21,5.42,8.51,8.51,0,0,1-11.25,0A7.21,7.21,0,0,1,169.5,43a7.24,7.24,0,0,1,2.2-5.43,8.47,8.47,0,0,1,11.24,0A7.23,7.23,0,0,1,185.15,43Zm-3.44.1a9.5,9.5,0,0,0-1.12-5.1,3.65,3.65,0,0,0-3.28-1.75A3.62,3.62,0,0,0,174.05,38a9.6,9.6,0,0,0-1.12,5.12A8.91,8.91,0,0,0,174.07,48a3.63,3.63,0,0,0,3.24,1.74A3.69,3.69,0,0,0,180.54,48,8.74,8.74,0,0,0,181.71,43.06Z" style="fill:#fff"/><path d="M197.37,36.19v-.42h4.84v.42a2,2,0,0,0-2.09,2.35V50.3h-.47L189.32,38.66v8.78a2.4,2.4,0,0,0,.42,1.61,3,3,0,0,0,1.69.66v.42h-5v-.42a2.23,2.23,0,0,0,1.44-.69,2.59,2.59,0,0,0,.44-1.66V37.62a13.16,13.16,0,0,0-1.16-1.1,1.79,1.79,0,0,0-.75-.32v-.42h4.32l8.39,9.63V38.94a3.71,3.71,0,0,0-.37-2A2.22,2.22,0,0,0,197.37,36.19Z" style="fill:#fff"/><path d="M210.4,35.77v.42a2.82,2.82,0,0,0-1.43.64,2.59,2.59,0,0,0-.37,1.66V47.7a2,2,0,0,0,.35,1.36,3,3,0,0,0,1.45.66v.42h-6.79v-.42a4.36,4.36,0,0,0,1.15-.42,1.25,1.25,0,0,0,.53-.58,3.9,3.9,0,0,0,.15-1.33V38.21a2,2,0,0,0-.35-1.36,3,3,0,0,0-1.47-.65v-.42Z" style="fill:#fff"/><path d="M220.88,35.4v3.79h-.42A4.61,4.61,0,0,0,219,37.07a3.26,3.26,0,0,0-2.11-.86,2.55,2.55,0,0,0-1.67.56,1.72,1.72,0,0,0-.69,1.38,1.86,1.86,0,0,0,.18.79,2.47,2.47,0,0,0,.52.73,18.44,18.44,0,0,0,2.2,1.49,25.83,25.83,0,0,1,2.45,1.62A6,6,0,0,1,221,43.94a4.08,4.08,0,0,1,.77,2.39,3.77,3.77,0,0,1-1.35,3,4.93,4.93,0,0,1-3.27,1.13,10,10,0,0,1-2.46-.37,5.1,5.1,0,0,0-1.06-.19.76.76,0,0,0-.73.47h-.42V46.08h.42a4.76,4.76,0,0,0,1.34,2.64,3.51,3.51,0,0,0,2.51,1,3,3,0,0,0,1.9-.58,1.77,1.77,0,0,0,.75-1.46,2.24,2.24,0,0,0-.48-1.36,10.21,10.21,0,0,0-2.57-1.88,14.59,14.59,0,0,1-2.54-1.77,4.22,4.22,0,0,1-1.26-3,4,4,0,0,1,1.26-3A4.58,4.58,0,0,1,217,35.4a6.56,6.56,0,0,1,1.47.2,6.55,6.55,0,0,0,1.22.19,1.1,1.1,0,0,0,.74-.4Z" style="fill:#fff"/><path d="M233,49.72v.42h-6.74v-.42a2.55,2.55,0,0,0,1.43-.62,2.38,2.38,0,0,0,.37-1.53v-11h-1.44a3.39,3.39,0,0,0-2.06.56,3.34,3.34,0,0,0-1.13,1.79H223l.14-3.47h.44a2.66,2.66,0,0,0,1.42.3h9.27a2.59,2.59,0,0,0,1.42-.3h.44l.14,3.47h-.42a3.34,3.34,0,0,0-1.13-1.79,3.39,3.39,0,0,0-2.06-.56h-1.44v11a2.38,2.38,0,0,0,.37,1.5A2.29,2.29,0,0,0,233,49.72Z" style="fill:#fff"/><path d="M243.69,50.14v-.42a3.55,3.55,0,0,0,1.25-.41.78.78,0,0,0,.36-.69,3.57,3.57,0,0,0-.28-1.1l-.83-2.21h-5.13l-.71,1.91a3.58,3.58,0,0,0-.27,1.18q0,.95,1.44,1.33v.42h-4.64v-.42a2.44,2.44,0,0,0,1.46-.88,8.2,8.2,0,0,0,1.24-2.39l4.13-11.06h2L248,46.9A6.85,6.85,0,0,0,249.22,49a2.23,2.23,0,0,0,1.5.68v.42Zm-4.16-5.86h4.28l-2.19-5.83Z" style="fill:#fff"/><path d="M260.37,35.4v3.79h-.42a4.61,4.61,0,0,0-1.44-2.12,3.26,3.26,0,0,0-2.11-.86,2.55,2.55,0,0,0-1.67.56,1.72,1.72,0,0,0-.69,1.38,1.86,1.86,0,0,0,.18.79,2.47,2.47,0,0,0,.52.73,18.44,18.44,0,0,0,2.2,1.49,25.83,25.83,0,0,1,2.45,1.62,6,6,0,0,1,1.05,1.16,4.08,4.08,0,0,1,.77,2.39,3.77,3.77,0,0,1-1.35,3,4.93,4.93,0,0,1-3.27,1.13,10,10,0,0,1-2.46-.37,5.1,5.1,0,0,0-1.06-.19.76.76,0,0,0-.73.47h-.42V46.08h.42a4.76,4.76,0,0,0,1.34,2.64,3.51,3.51,0,0,0,2.51,1,3,3,0,0,0,1.9-.58,1.77,1.77,0,0,0,.75-1.46,2.24,2.24,0,0,0-.48-1.36,10.21,10.21,0,0,0-2.57-1.88,14.59,14.59,0,0,1-2.54-1.77,4.22,4.22,0,0,1-1.26-3,4,4,0,0,1,1.26-3,4.58,4.58,0,0,1,3.25-1.18,6.56,6.56,0,0,1,1.47.2,6.55,6.55,0,0,0,1.22.19,1.1,1.1,0,0,0,.74-.4Z" style="fill:#fff"/><path d="M89.48,70.19h.47v4.45h-.47a1.85,1.85,0,0,0-2-1.83H85V77a1.77,1.77,0,0,0,.44,1.37,2.28,2.28,0,0,0,1.52.4h.84q2.11,0,3-2.67h.42l-.26,3.49H80v-.42a2.58,2.58,0,0,0,1.44-.65,2.7,2.7,0,0,0,.36-1.65V67.65a2,2,0,0,0-.37-1.4A2.71,2.71,0,0,0,80,65.66v-.42H90.76v3.19h-.42a3.91,3.91,0,0,0-.89-1.89,2.49,2.49,0,0,0-1.71-.49H85V72h2.53a1.91,1.91,0,0,0,1.32-.41A2.58,2.58,0,0,0,89.48,70.19Z" style="fill:#fff"/><path d="M102.92,65.66v-.42h4.84v.42A2,2,0,0,0,105.68,68V79.77h-.47L94.88,68.13v8.78a2.4,2.4,0,0,0,.42,1.61,3,3,0,0,0,1.69.66v.42H92v-.42a2.23,2.23,0,0,0,1.44-.69,2.59,2.59,0,0,0,.44-1.66V67.09A13.09,13.09,0,0,0,92.76,66a1.79,1.79,0,0,0-.75-.32v-.42h4.32l8.4,9.63V68.41a3.71,3.71,0,0,0-.38-2A2.23,2.23,0,0,0,102.92,65.66Z" style="fill:#fff"/><path d="M123.91,70.19h.47v4.45h-.47a1.85,1.85,0,0,0-2-1.83h-2.53V77a1.77,1.77,0,0,0,.44,1.37,2.28,2.28,0,0,0,1.52.4h.84q2.11,0,3-2.67h.42l-.26,3.49H114.42v-.42a2.58,2.58,0,0,0,1.44-.65,2.7,2.7,0,0,0,.36-1.65V67.65a2,2,0,0,0-.37-1.4,2.71,2.71,0,0,0-1.43-.59v-.42h10.77v3.19h-.42a3.92,3.92,0,0,0-.89-1.89,2.49,2.49,0,0,0-1.71-.49h-2.78V72h2.53a1.91,1.91,0,0,0,1.32-.41A2.59,2.59,0,0,0,123.91,70.19Z" style="fill:#fff"/><path d="M126.89,79.61v-.42a3.26,3.26,0,0,0,1.48-.69,2.63,2.63,0,0,0,.34-1.64V67.7a2.05,2.05,0,0,0-.34-1.35,3.15,3.15,0,0,0-1.48-.68v-.42h7.35a9.28,9.28,0,0,1,6.33,2,6.74,6.74,0,0,1,2.32,5.34,6.59,6.59,0,0,1-2.07,5.1,8,8,0,0,1-5.61,1.91Zm6.86-13.55h-1.87v11a1.49,1.49,0,0,0,.54,1.31,3.2,3.2,0,0,0,1.8.38,4.73,4.73,0,0,0,3.86-1.65,7.15,7.15,0,0,0,1.37-4.68,6.89,6.89,0,0,0-1.5-4.68A5.27,5.27,0,0,0,133.75,66.06Z" style="fill:#fff"/><path d="M155.84,79.61V77.69a9.48,9.48,0,0,1-2.3,1.8,5.19,5.19,0,0,1-2.33.49,4.94,4.94,0,0,1-3.59-1.29,4.62,4.62,0,0,1-1.34-3.48V67.68a2,2,0,0,0-.35-1.36,3,3,0,0,0-1.47-.65v-.42h6.81v.42a2.89,2.89,0,0,0-1.46.65,2.23,2.23,0,0,0-.37,1.48v8a2.86,2.86,0,0,0,.72,2.07,2.61,2.61,0,0,0,2,.75,5.36,5.36,0,0,0,3.69-2v-9a2,2,0,0,0-.35-1.35,3.06,3.06,0,0,0-1.48-.66v-.42h6.79v.42a2.68,2.68,0,0,0-1.42.63A2.59,2.59,0,0,0,159,68v9.21a2,2,0,0,0,.35,1.35,3,3,0,0,0,1.45.66v.42Z" style="fill:#fff"/><path d="M175.64,70.25h-.4a6.41,6.41,0,0,0-1.77-3.37,4.4,4.4,0,0,0-3.12-1.2,3.69,3.69,0,0,0-3.18,1.69A7.8,7.8,0,0,0,166,71.92a7.74,7.74,0,0,0,1.38,4.92,4.59,4.59,0,0,0,3.8,1.74,5.34,5.34,0,0,0,2.4-.54,8,8,0,0,0,2.22-1.74v.76A6.82,6.82,0,0,1,170,80a7.28,7.28,0,0,1-5.36-2,7.14,7.14,0,0,1-2.06-5.31,7.6,7.6,0,0,1,7.76-7.76,9.32,9.32,0,0,1,3.06.6,3.69,3.69,0,0,0,1,.26q.53,0,.89-.74h.4Z" style="fill:#fff"/><path d="M185.65,79.61v-.42a3.56,3.56,0,0,0,1.25-.41.78.78,0,0,0,.36-.69A3.57,3.57,0,0,0,187,77l-.83-2.21H181l-.71,1.91a3.58,3.58,0,0,0-.27,1.17q0,.95,1.44,1.33v.42h-4.64v-.42a2.44,2.44,0,0,0,1.46-.88,8.19,8.19,0,0,0,1.24-2.39l4.13-11.06h2L190,76.37a6.85,6.85,0,0,0,1.18,2.14,2.23,2.23,0,0,0,1.5.68v.42Zm-4.16-5.86h4.28l-2.19-5.83Z" style="fill:#fff"/><path d="M206.52,70.25h-.4a6.41,6.41,0,0,0-1.77-3.37,4.4,4.4,0,0,0-3.12-1.2A3.69,3.69,0,0,0,198,67.37a7.8,7.8,0,0,0-1.18,4.55,7.74,7.74,0,0,0,1.38,4.92,4.59,4.59,0,0,0,3.8,1.74,5.34,5.34,0,0,0,2.4-.54,8,8,0,0,0,2.22-1.74v.76A6.82,6.82,0,0,1,200.84,80a7.29,7.29,0,0,1-5.36-2,7.14,7.14,0,0,1-2.06-5.31,7.6,7.6,0,0,1,7.76-7.76,9.32,9.32,0,0,1,3.06.6,3.69,3.69,0,0,0,1,.26q.53,0,.89-.74h.4Z" style="fill:#fff"/><path d="M215.32,65.24v.42a2.82,2.82,0,0,0-1.43.64,2.59,2.59,0,0,0-.37,1.66v9.21a2,2,0,0,0,.35,1.35,3,3,0,0,0,1.45.66v.42h-6.79v-.42a4.36,4.36,0,0,0,1.15-.42,1.25,1.25,0,0,0,.53-.58,3.9,3.9,0,0,0,.15-1.33V67.68a2,2,0,0,0-.35-1.36,3,3,0,0,0-1.47-.65v-.42Z" style="fill:#fff"/><path d="M233.08,72.44a7.19,7.19,0,0,1-2.21,5.42,8.51,8.51,0,0,1-11.25,0,7.8,7.8,0,0,1,0-10.85,8.47,8.47,0,0,1,11.24,0A7.23,7.23,0,0,1,233.08,72.44Zm-3.44.1a9.51,9.51,0,0,0-1.12-5.1,3.92,3.92,0,0,0-6.53,0,9.61,9.61,0,0,0-1.11,5.12A8.91,8.91,0,0,0,222,77.42a3.63,3.63,0,0,0,3.24,1.74,3.69,3.69,0,0,0,3.24-1.73A8.74,8.74,0,0,0,229.63,72.53Zm-4.46-12.91h4.43l-5.53,4.12h-.42Z" style="fill:#fff"/><path d="M245.29,65.66v-.42h4.84v.42A2,2,0,0,0,248.05,68V79.77h-.47L237.25,68.13v8.78a2.4,2.4,0,0,0,.42,1.61,3,3,0,0,0,1.69.66v.42h-5v-.42a2.23,2.23,0,0,0,1.44-.69,2.59,2.59,0,0,0,.44-1.66V67.09a13.09,13.09,0,0,0-1.16-1.1,1.8,1.8,0,0,0-.75-.32v-.42h4.32l8.39,9.63V68.41a3.71,3.71,0,0,0-.37-2A2.23,2.23,0,0,0,245.29,65.66Z" style="fill:#fff"/><path d="M46.82,33.82A9.23,9.23,0,1,0,56,43,9.23,9.23,0,0,0,46.82,33.82Zm2.94,14.74-.9-3H45.5l-.83,3H41.92l3.58-12H49l3.63,12Z" style="fill:#fff"/><path d="M47.16,39.56h0a22.56,22.56,0,0,1-.54,2.39l-.7,2.61h2.59l-.73-2.61A18.68,18.68,0,0,1,47.16,39.56Z" style="fill:#fff"/></svg>